<svg width="100" height="100" viewBox="0 0 100 100" fill="none" xmlns="http://www.w3.org/2000/svg">
<rect opacity="0.05" width="100" height="100" rx="16" fill="#00AADA"/>
<g clip-path="url(#clip0_60_314)">
<path d="M60.3457 63.1049C60.3457 64.1214 60.3313 65.0528 60.3601 65.9829C60.364 66.1283 60.5382 66.3156 60.6822 66.3994C61.6826 66.9837 62.7027 67.5352 63.7031 68.1194C64.0318 68.3107 64.2583 68.3356 64.6014 68.0841C65.6005 67.3492 66.9597 67.4173 67.9313 68.1771C68.8871 68.925 69.2564 70.201 68.8492 71.3485C68.438 72.5026 67.3682 73.2453 66.1386 73.2296C64.9287 73.2139 63.8511 72.4279 63.5067 71.2515C63.3993 70.8848 63.364 70.4774 63.3954 70.0962C63.419 69.808 63.3312 69.6953 63.1047 69.5709C61.8895 68.9002 60.694 68.1967 59.4697 67.5443C58.9525 67.2693 58.7521 66.8998 58.7718 66.3261C58.8019 65.4275 58.7796 64.5288 58.7796 63.6289C58.7796 63.4691 58.7796 63.3105 58.7796 63.0132C58.4601 63.1363 58.214 63.1874 58.0162 63.3158C57.3039 63.7743 56.6151 64.2707 55.8989 64.7227C55.6789 64.8615 55.6082 64.9991 55.5807 65.2572C55.4759 66.2331 55.6828 67.0898 56.3729 67.8155C56.551 68.0028 56.695 68.2295 56.8247 68.4548C57.1939 69.0967 57.5671 69.4883 58.4785 69.3639C59.7146 69.1949 60.8498 70.1852 61.1851 71.4074C61.5216 72.6349 61.0004 73.933 59.9136 74.5828C58.8058 75.2443 57.3969 75.074 56.4816 74.1675C55.582 73.2768 55.3607 71.8751 56.0089 70.7865C56.2158 70.4407 56.183 70.2285 55.9591 69.9311C55.4681 69.2787 55.0412 68.5779 54.5384 67.936C54.1429 67.4304 53.9491 66.8985 54.0225 66.2606C54.046 66.0523 54.0264 65.8388 54.0264 65.6305C52.9527 65.8401 51.9064 66.0444 50.7895 66.2632C50.7895 67.2365 50.7777 68.2609 50.8065 69.284C50.8091 69.3888 51.0383 69.5145 51.1836 69.584C52.3962 70.1617 53.0378 71.4389 52.7602 72.7475C52.4891 74.0261 51.3709 74.9587 50.0745 74.9863C48.7533 75.0151 47.5604 74.1086 47.258 72.8445C46.9371 71.5004 47.5683 70.1577 48.824 69.5984C49.1226 69.4648 49.2352 69.3246 49.2247 68.9919C49.1985 68.0788 49.2156 67.1645 49.2156 66.2632C48.1366 66.051 47.0877 65.8466 45.976 65.6279C45.976 65.8833 45.9525 66.1702 45.9813 66.4518C46.0349 66.9732 45.8595 67.3976 45.5505 67.8103C45.0136 68.5294 44.5278 69.2879 43.9922 70.0084C43.7958 70.273 43.8037 70.4499 43.9674 70.738C44.5514 71.7664 44.5226 72.813 43.843 73.7863C43.1751 74.7439 42.2101 75.1474 41.0683 74.9522C39.8859 74.7505 39.1054 74.0287 38.7925 72.8563C38.2713 70.911 39.9867 69.0181 41.96 69.3783C42.3633 69.4517 42.578 69.3587 42.7849 69.0233C43.0848 68.5373 43.3991 68.0526 43.7709 67.6216C44.2934 67.0138 44.4649 66.347 44.4283 65.5558C44.406 65.0803 44.2999 64.8118 43.8547 64.5747C43.2118 64.2314 42.6448 63.7481 42.0294 63.3485C41.8186 63.211 41.5619 63.1442 41.2228 63.0014C41.2228 64.124 41.177 65.1026 41.2372 66.0746C41.2869 66.871 40.9989 67.3348 40.2826 67.6911C39.129 68.2635 38.0304 68.9447 36.9017 69.5669C36.6791 69.6901 36.5756 69.7936 36.6162 70.0896C36.7943 71.3956 35.9916 72.6453 34.7398 73.0789C33.4932 73.5112 32.1026 73.0135 31.4099 71.8882C30.7146 70.7577 30.8966 69.301 31.8486 68.3788C32.8005 67.4566 34.2815 67.2902 35.3578 68.0552C35.7297 68.3198 35.972 68.3172 36.3412 68.0958C37.3076 67.5182 38.2949 66.9745 39.2861 66.4414C39.5716 66.2881 39.6711 66.1047 39.6633 65.7851C39.6423 64.9205 39.6567 64.0546 39.6567 63.1023C39.442 63.1023 39.256 63.1023 39.0688 63.1023C36.0951 63.1023 33.1213 63.1023 30.1476 63.1023C29.2219 63.1023 29.0032 62.8796 29.0032 61.9403C29.0032 61.2369 28.9953 60.5347 29.0071 59.8313C29.0163 59.2667 29.2886 58.9955 29.8543 58.9811C30.3414 58.968 30.8285 58.9785 31.3837 58.9785C31.3837 58.5004 31.3785 58.0655 31.385 57.6305C31.3955 56.9834 31.6679 56.7044 32.3134 56.6926C32.883 56.6821 33.4526 56.69 34.0576 56.69V37.9169C33.4893 37.9169 32.9249 37.9195 32.3606 37.9169C31.6613 37.913 31.3942 37.6405 31.385 36.9318C31.3798 36.5558 31.3811 36.1799 31.3759 35.8039C31.3759 35.7738 31.3575 35.7437 31.3287 35.6507C30.8822 35.6507 30.4147 35.648 29.9473 35.6507C29.4929 35.6546 29.1289 35.5026 29.0294 35.0219C28.9298 34.5451 29.1878 34.2647 29.6121 34.0748C36.243 31.0907 42.8779 28.1053 49.5062 25.1068C49.9357 24.9116 50.2854 25.0111 50.669 25.1841C57.0329 28.0555 63.3993 30.923 69.7645 33.7918C70.0172 33.9058 70.2725 34.0145 70.5213 34.1363C70.8879 34.3171 71.0569 34.6184 70.9757 35.0206C70.8932 35.428 70.6038 35.6297 70.2044 35.6441C69.7003 35.6625 69.1949 35.648 68.6213 35.648C68.6213 36.1131 68.6266 36.5467 68.62 36.9816C68.6095 37.6261 68.328 37.9104 67.6929 37.9169C67.122 37.9235 66.5524 37.9169 65.9448 37.9169V56.6913C66.4791 56.6913 67.0094 56.6887 67.5397 56.6913C68.3725 56.6952 68.6174 56.9415 68.6213 57.7746C68.6213 58.1493 68.6213 58.5239 68.6213 58.9785C69.1137 58.9785 69.5811 58.9733 70.0473 58.9785C70.7347 58.9877 70.9901 59.2431 70.9966 59.9282C71.0019 60.5491 70.9979 61.1701 70.9979 61.7923C70.9979 62.9359 70.8316 63.1036 69.7082 63.1036C66.7999 63.1036 63.8917 63.1036 60.9834 63.1036H60.347L60.3457 63.1049ZM49.9515 64.648C56.0259 64.6611 60.9572 59.7514 60.9782 53.6705C60.9978 47.6264 56.0796 42.697 50.0209 42.6878C43.9595 42.6786 39.0321 47.5792 39.0216 53.6286C39.0112 59.6911 43.915 64.6349 49.9515 64.648ZM32.959 36.3083H67.0225V35.69H32.959V36.3083ZM40.1111 37.9339V45.799C40.8666 45.0981 41.6012 44.3907 42.3685 43.7213C42.6003 43.5196 42.7103 43.3349 42.7064 43.0258C42.692 41.4918 42.6998 39.9578 42.6985 38.4252C42.6985 38.2667 42.6854 38.1068 42.6776 37.9352H40.1098L40.1111 37.9339ZM59.8861 45.778V37.9339H57.3563C57.3366 38.0073 57.3052 38.0689 57.3052 38.1304C57.3013 39.8268 57.2987 41.5232 57.3052 43.2209C57.3052 43.3349 57.3655 43.4816 57.4479 43.5576C58.2546 44.3056 59.073 45.0418 59.8848 45.7793L59.8861 45.778ZM48.7219 37.9457V41.1237H51.2871V37.9457H48.7219ZM38.5555 58.9471C38.5123 58.3825 38.2425 58.2357 37.741 58.2475C36.3242 58.2816 34.9074 58.258 33.4906 58.2606C33.3191 58.2606 33.1475 58.279 32.9734 58.2881V58.9458H38.5568L38.5555 58.9471ZM61.4456 58.9169H67.0304V58.2606C66.8392 58.2606 66.6637 58.2606 66.4896 58.2606C65.0728 58.2606 63.6547 58.2868 62.2392 58.2475C61.7167 58.2331 61.4954 58.4244 61.4456 58.9182V58.9169Z" fill="#00AADA"/>
<path d="M59.3504 53.6941C59.2823 59.0151 55.0764 63.0931 49.7326 63.021C44.7057 62.9542 40.5993 58.6772 40.6425 53.5565C40.6871 48.3704 44.965 44.2204 50.1883 44.2977C55.2479 44.3711 59.4159 48.6455 59.3504 53.6941ZM50.7802 58.0811C50.9019 58.0379 50.9779 58.013 51.0525 57.9842C52.2559 57.5178 52.9839 56.3533 52.8045 55.1822C52.599 53.8368 51.6143 52.9605 50.2276 52.8871C50.0168 52.8753 49.8007 52.8806 49.5938 52.8413C49.1224 52.7522 48.8474 52.443 48.7728 51.9832C48.6969 51.5182 48.8867 51.1488 49.294 50.913C49.8295 50.6025 50.7592 50.7414 51.1966 51.1816C51.6143 51.6034 52.0425 51.6505 52.3947 51.3152C52.7417 50.9851 52.7587 50.4912 52.324 50.11C51.8827 49.7236 51.355 49.4354 50.7985 49.0594C50.7343 48.3101 50.5366 48.018 50.0155 48.0075C49.4812 47.997 49.2874 48.2839 49.1761 49.2546C49.1067 49.2808 49.0321 49.3096 48.9574 49.3384C47.7436 49.8074 47.0182 50.9523 47.1884 52.1287C47.3783 53.4334 48.3145 54.3124 49.6554 54.4368C49.8662 54.4565 50.0796 54.4473 50.2904 54.4669C50.8116 54.5167 51.1992 54.9084 51.2463 55.4193C51.2908 55.9066 50.9504 56.4332 50.4528 56.5105C49.823 56.6074 49.1918 56.6559 48.706 56.0572C48.4062 55.6865 47.9466 55.6891 47.6166 55.9786C47.2931 56.2629 47.2211 56.7358 47.5537 57.0672C47.902 57.4157 48.3145 57.734 48.7571 57.9436C49.0779 58.0955 49.2377 58.2056 49.2298 58.5868C49.2219 59.023 49.5716 59.3112 49.9906 59.3151C50.4122 59.319 50.7291 59.0374 50.7762 58.6012C50.7933 58.4401 50.7789 58.2763 50.7789 58.0798L50.7802 58.0811Z" fill="#00AADA"/>
</g>
<defs>
<clipPath id="clip0_60_314">
<rect width="50" height="50" fill="white" transform="translate(25 25)"/>
</clipPath>
</defs>
</svg>
