<svg id="Layer_1" data-name="Layer 1" xmlns="http://www.w3.org/2000/svg" xmlns:xlink="http://www.w3.org/1999/xlink" viewBox="0 0 1000 1000"><defs><style>.cls-1{fill:none;}.cls-2{clip-path:url(#clip-path);}.cls-3{fill:#18351d;}.cls-4{fill:#50ba67;}</style><clipPath id="clip-path"><rect class="cls-1" x="90.31" y="90.31" width="819.39" height="819.39"/></clipPath></defs><g class="cls-2"><path class="cls-3" d="M785.76,854.63H714.35v24.63H699.58v-66h14.77v25.37h71.41Z"/><path class="cls-3" d="M785.76,736.44H699.58V680.05H714.1v40.63h57.13V679.56h14.53Zm-36.94-7.39H734.54V686.33h14.28Z"/><path class="cls-3" d="M787,561.86a44.53,44.53,0,0,1-3.2,17.11,38.53,38.53,0,0,1-9.17,13.42,42.2,42.2,0,0,1-14.16,8.8,49.5,49.5,0,0,1-17.92,3.14A45,45,0,0,1,725.18,601a44,44,0,0,1-14-9.24A41.93,41.93,0,0,1,701.79,578a43.64,43.64,0,0,1-3.32-17.11,40.65,40.65,0,0,1,1.84-12.19,42.78,42.78,0,0,1,5.11-10.83A34,34,0,0,1,713,529.6l11.2,10.22a40.81,40.81,0,0,0-5.6,6.58,27.89,27.89,0,0,0-3.45,7,24.17,24.17,0,0,0-1.17,7.45,27.3,27.3,0,0,0,2.09,10.65,25.3,25.3,0,0,0,5.91,8.62,28.08,28.08,0,0,0,9,5.72,31,31,0,0,0,11.64,2.1,32.86,32.86,0,0,0,11.82-2,26.38,26.38,0,0,0,9.11-5.79,25.36,25.36,0,0,0,5.85-9,31.63,31.63,0,0,0,2-11.51,28.1,28.1,0,0,0-1.11-7.88,28.55,28.55,0,0,0-3.14-7.08,33.27,33.27,0,0,0-4.74-6l12.68-7.88a29.16,29.16,0,0,1,6,7.88,45.84,45.84,0,0,1,4.25,11A49.2,49.2,0,0,1,787,561.86Z"/><path class="cls-3" d="M785.76,397.86H699.58v-16h86.18Zm0,55.28H699.58v-16h86.18Zm-35.46-6.65h-15V390.11h15Z"/><circle class="cls-4" cx="576.37" cy="252.88" r="84.91"/><path class="cls-4" d="M639.05,378.08V878.3H503.34C513.73,579.74,307,321.11,101,120.74,257.45,234.9,410.73,369,513.73,534.23v-156a140.09,140.09,0,0,0,125.32-.11Z"/></g></svg>