<svg id="Layer_1" data-name="Layer 1" xmlns="http://www.w3.org/2000/svg" viewBox="0 0 1000 1000"><defs><style>.cls-1{fill:#18351d;}.cls-2{fill:#50ba67;}</style></defs><path class="cls-1" d="M133.77,539.12V435.27h130.7a22.76,22.76,0,0,1,12.17,3.31,25.51,25.51,0,0,1,8.6,8.68,22.89,22.89,0,0,1,3.22,12v79.85H267.15V460a3.35,3.35,0,0,0-3.39-3.4h-38.5a3.1,3.1,0,0,0-2.24,1,3.27,3.27,0,0,0-1,2.41v79.15H200.37V460a3.45,3.45,0,0,0-.9-2.41,3,3,0,0,0-2.32-1H158.47a3.1,3.1,0,0,0-2.23,1,3.27,3.27,0,0,0-1,2.41v79.15Z"/><path class="cls-1" d="M303.52,580.3v-145h81.65a22.58,22.58,0,0,1,11.9,3.31,25.24,25.24,0,0,1,8.69,8.68,23,23,0,0,1,3.22,12v55.87a22.87,22.87,0,0,1-3.22,12,25.1,25.1,0,0,1-8.69,8.69,22.49,22.49,0,0,1-11.9,3.32H324.83V580.3Zm24.7-62.48h56.23a3,3,0,0,0,2.23-1,3.28,3.28,0,0,0,1-2.42V460a3.27,3.27,0,0,0-1-2.41,3.1,3.1,0,0,0-2.23-1H328.22a3.38,3.38,0,0,0-2.31,1,3.11,3.11,0,0,0-1.08,2.41v54.44a3.12,3.12,0,0,0,1.08,2.42A3.29,3.29,0,0,0,328.22,517.82Z"/><path class="cls-1" d="M422.05,539.12V459.27a22.5,22.5,0,0,1,3.3-12,26,26,0,0,1,8.78-8.68,22.65,22.65,0,0,1,11.92-3.31h57.83v21.3H446.76a3.38,3.38,0,0,0-3.41,3.4v79.15Z"/><path class="cls-1" d="M616.74,447.27a25.33,25.33,0,0,0-8.66-8.65A22.25,22.25,0,0,0,596,435.34h-9.25v21.18h8.5a3.52,3.52,0,0,1,2.39,1.05,3,3,0,0,1,1,2.38v54.47a3.58,3.58,0,0,1-3.43,3.43h-56.1a3.17,3.17,0,0,1-2.39-1.05,3.35,3.35,0,0,1-.89-2.38V460a3.35,3.35,0,0,1,.89-2.38,3.84,3.84,0,0,1,2.39-1.05h7.46V435.34h-8.06a22.25,22.25,0,0,0-12.08,3.28,26.61,26.61,0,0,0-8.66,8.65,22.11,22.11,0,0,0-3.28,11.94v55.95a22.11,22.11,0,0,0,3.28,11.94,25.24,25.24,0,0,0,8.66,8.65,22.37,22.37,0,0,0,12.08,3.44H596a22.37,22.37,0,0,0,12.08-3.44,24.09,24.09,0,0,0,8.66-8.65A23.5,23.5,0,0,0,620,515.16V459.21A23.5,23.5,0,0,0,616.74,447.27Z"/><path class="cls-1" d="M686.87,539.12,629.75,435.27h24.71l42.8,78.61L740,435.27h24.71L707.28,539.12Z"/><path class="cls-1" d="M783.18,535.8a26.13,26.13,0,0,1-8.68-8.69,22.22,22.22,0,0,1-3.31-12V459.27a22.33,22.33,0,0,1,3.31-12,26.29,26.29,0,0,1,8.68-8.68,22.49,22.49,0,0,1,12-3.31h57.48a22.76,22.76,0,0,1,12.17,3.31,25.39,25.39,0,0,1,8.59,8.68,22.8,22.8,0,0,1,3.22,12v38.67H792.49v16.47a3.38,3.38,0,0,0,3.4,3.41h80.75v21.3H795.18A22.41,22.41,0,0,1,783.18,535.8Zm9.31-57.38h62.85V460a3.38,3.38,0,0,0-3.4-3.4H795.89a3.3,3.3,0,0,0-2.41,1,3.24,3.24,0,0,0-1,2.41Z"/><path class="cls-1" d="M894.2,539.12V459.27a22.5,22.5,0,0,1,3.31-12,26,26,0,0,1,8.77-8.68,22.65,22.65,0,0,1,11.92-3.31H976v21.3H918.91a3.38,3.38,0,0,0-3.4,3.4v79.15Z"/><rect class="cls-1" x="556.02" y="418.43" width="21.34" height="55.57"/><path class="cls-1" d="M778.54,580.47V559.79H771.4v-4.28h19.12v4.28h-7.35v20.68Z"/><path class="cls-1" d="M812.78,580.47v-25h16.33v4.21H817.34v16.55h11.91v4.2Zm2.14-10.69v-4.14h12.37v4.14Z"/><path class="cls-1" d="M863.35,580.83a12.85,12.85,0,0,1-5-.93,11.12,11.12,0,0,1-3.89-2.65,12.28,12.28,0,0,1-2.54-4.1,14.37,14.37,0,0,1-.91-5.19,13,13,0,0,1,1-5,12.72,12.72,0,0,1,2.67-4.07,12.21,12.21,0,0,1,4-2.71,12.64,12.64,0,0,1,5-1,12,12,0,0,1,3.53.53,12.34,12.34,0,0,1,3.13,1.48,9.54,9.54,0,0,1,2.39,2.2l-3,3.24a11.69,11.69,0,0,0-1.9-1.62,8.38,8.38,0,0,0-2-1,6.86,6.86,0,0,0-2.15-.34,7.78,7.78,0,0,0-3.09.61,7.23,7.23,0,0,0-2.5,1.71,8.11,8.11,0,0,0-1.65,2.62,8.91,8.91,0,0,0-.61,3.37,9.39,9.39,0,0,0,.59,3.43,7.53,7.53,0,0,0,1.67,2.63,7.33,7.33,0,0,0,2.61,1.7,9.17,9.17,0,0,0,3.33.59,8.21,8.21,0,0,0,2.28-.32,8.67,8.67,0,0,0,2.06-.91,10,10,0,0,0,1.73-1.38l2.28,3.68a8.44,8.44,0,0,1-2.28,1.74,13.4,13.4,0,0,1-3.2,1.24A14.61,14.61,0,0,1,863.35,580.83Z"/><path class="cls-1" d="M894.84,580.47v-25h4.64v25Zm1.93-10.27v-4.35H913.1v4.35Zm14.09,10.27v-25h4.63v25Z"/><circle class="cls-2" cx="104.92" cy="432.72" r="14.46"/><path class="cls-2" d="M115.59,454v85.18H92.48C94.25,488.38,59,444.34,24,410.22c26.64,19.44,52.74,42.27,70.28,70.41V454.06a23.85,23.85,0,0,0,21.34,0Z"/></svg>