<svg id="Layer_1" data-name="Layer 1" xmlns="http://www.w3.org/2000/svg" viewBox="0 0 1000 1000"><defs><style>.cls-1{fill:#fff;}.cls-2{fill:#50ba67;}.cls-3{fill:none;}</style></defs><polygon class="cls-1" points="714.35 813.26 699.58 813.26 699.58 879.26 714.35 879.26 714.35 854.63 785.76 854.63 785.76 838.63 714.35 838.63 714.35 813.26"/><polygon class="cls-1" points="771.23 720.68 748.82 720.68 748.82 686.33 734.54 686.33 734.54 720.68 714.1 720.68 714.1 680.05 699.58 680.05 699.58 736.44 785.76 736.44 785.76 679.56 771.23 679.56 771.23 720.68"/><path class="cls-1" d="M711.15,591.77a44,44,0,0,0,14,9.24,45,45,0,0,0,17.36,3.32,49.5,49.5,0,0,0,17.92-3.14,42.2,42.2,0,0,0,14.16-8.8A38.53,38.53,0,0,0,783.79,579a44.53,44.53,0,0,0,3.2-17.11,49.2,49.2,0,0,0-1.54-12.13,45.84,45.84,0,0,0-4.25-11,29.16,29.16,0,0,0-6-7.88l-12.68,7.88a33.72,33.72,0,0,1,4.74,6,28.55,28.55,0,0,1,3.14,7.08,28,28,0,0,1,1.11,7.88,31.63,31.63,0,0,1-2,11.51,25.36,25.36,0,0,1-5.85,9,26.38,26.38,0,0,1-9.11,5.79,32.86,32.86,0,0,1-11.82,2,31,31,0,0,1-11.64-2.1,28.08,28.08,0,0,1-9-5.72,25.4,25.4,0,0,1-5.91-8.62A27.3,27.3,0,0,1,714,560.87a24.17,24.17,0,0,1,1.17-7.45,27.89,27.89,0,0,1,3.45-7,40.81,40.81,0,0,1,5.6-6.58L713,529.6a34,34,0,0,0-7.58,8.25,42.78,42.78,0,0,0-5.11,10.83,40.65,40.65,0,0,0-1.84,12.19A43.64,43.64,0,0,0,701.79,578,41.93,41.93,0,0,0,711.15,591.77Z"/><polygon class="cls-1" points="785.76 437.14 750.3 437.14 750.3 397.86 785.76 397.86 785.76 381.86 699.58 381.86 699.58 397.86 735.28 397.86 735.28 437.14 699.58 437.14 699.58 453.14 785.76 453.14 785.76 437.14"/><circle class="cls-2" cx="576.37" cy="252.88" r="84.91"/><path class="cls-2" d="M639.05,378.08V878.3H503.34C513.73,579.74,307,321.11,101,120.74,257.45,234.9,410.73,369,513.73,534.23v-156a140.09,140.09,0,0,0,125.32-.11Z"/><rect class="cls-3" x="90.31" y="90.31" width="819.39" height="819.39"/></svg>