<svg width="71" height="93" viewBox="0 0 71 93" fill="none" xmlns="http://www.w3.org/2000/svg">
<path d="M2.68779 88.24C1.67953 88.24 0.887366 89.0176 0.887366 90.0118C0.887366 91.0061 1.67953 91.7907 2.68779 91.7907C3.19221 91.7907 3.71061 91.5577 4.09213 91.1931L4.59655 91.7546C4.08514 92.259 3.35763 92.5829 2.64469 92.5829C1.16812 92.5829 0.0235596 91.4669 0.0235596 90.02C0.0235596 88.5865 1.18326 87.4845 2.67381 87.4845C3.38884 87.4881 4.07505 87.7667 4.59015 88.2627L4.09271 88.8818C3.72517 88.4846 3.1992 88.24 2.68779 88.24Z" fill="#2E2E2E"/>
<path d="M6.30967 87.5049V89.6944H8.98205V87.5049H9.83188V92.5468H8.98205V90.458H6.30967V92.5468H5.45984V87.5049H6.30967Z" fill="#2E2E2E"/>
<path d="M12.0068 87.5049V92.5468H11.1546V87.5049H12.0068Z" fill="#2E2E2E"/>
<path d="M16.7755 87.5049V88.2703H15.1743V92.5485H14.3268V88.2703H12.7349V87.5066L16.7755 87.5049Z" fill="#2E2E2E"/>
<path d="M20.7003 92.5468L19.7782 91.0201C19.7066 91.0271 19.6274 91.0271 19.5482 91.0271H18.3524V92.5468H17.5037V87.5049H19.5482C20.8372 87.5049 21.5793 88.1316 21.5793 89.2267C21.5793 90.0334 21.2047 90.6019 20.5349 90.8617L21.6655 92.5468H20.7003ZM19.5482 90.2635C20.3258 90.2635 20.7714 89.932 20.7714 89.2482C20.7714 88.5854 20.3246 88.2685 19.5482 88.2685H18.3524V90.2635H19.5482Z" fill="#2E2E2E"/>
<path d="M27.6386 90.0258C27.6386 91.4669 26.4736 92.5829 24.9662 92.5829C23.4587 92.5829 22.2938 91.4669 22.2938 90.0258C22.2938 88.5848 23.4587 87.4833 24.9662 87.4833C26.4736 87.4833 27.6386 88.5854 27.6386 90.0258ZM23.1582 90.0258C23.1582 91.0271 23.9865 91.8193 24.9732 91.8193C25.2104 91.8236 25.4462 91.7805 25.6667 91.6927C25.8871 91.6048 26.0879 91.474 26.2572 91.3077C26.4265 91.1414 26.561 90.943 26.6528 90.7242C26.7446 90.5054 26.7919 90.2704 26.7919 90.0331C26.7919 89.7958 26.7446 89.5609 26.6528 89.342C26.561 89.1232 26.4265 88.9248 26.2572 88.7586C26.0879 88.5923 25.8871 88.4614 25.6667 88.3735C25.4462 88.2857 25.2104 88.2427 24.9732 88.247C23.9771 88.247 23.1535 89.0275 23.1535 90.0258H23.1582Z" fill="#2E2E2E"/>
<path d="M29.3793 87.5049L32.0803 91.1279V87.5049H32.9155V92.5468H32.0803L29.3933 88.9314V92.5468H28.5435V87.5049H29.3793Z" fill="#2E2E2E"/>
<path d="M37.2588 87.5049V92.5468H36.409V87.5049H37.2588Z" fill="#2E2E2E"/>
<path d="M39.419 87.5049L42.1205 91.1279V87.5049H42.9581V92.5468H42.1228L39.4359 88.9314V92.5468H38.5837V87.5049H39.419Z" fill="#2E2E2E"/>
<path d="M47.7304 87.5049V88.2703H46.1315V92.5485H45.2817V88.2703H43.6898V87.5066L47.7304 87.5049Z" fill="#2E2E2E"/>
<path d="M52.0589 87.5049V88.2703H49.3067V89.6391H51.77V90.3963H49.3067V91.7861H52.1445V92.5497H48.4568V87.5078L52.0589 87.5049Z" fill="#2E2E2E"/>
<path d="M56.3804 92.5468L55.4583 91.0201C55.3867 91.0271 55.3075 91.0271 55.2283 91.0271H54.0324V92.5468H53.1826V87.5049H55.2283C56.5173 87.5049 57.2593 88.1316 57.2593 89.2267C57.2593 90.0334 56.8848 90.6019 56.215 90.8617L57.3455 92.5468H56.3804ZM55.2283 90.2635C56.0059 90.2635 56.4515 89.932 56.4515 89.2482C56.4515 88.5854 56.0047 88.2685 55.2283 88.2685H54.0324V90.2635H55.2283Z" fill="#2E2E2E"/>
<path d="M59.2395 87.5049V92.5468H58.3897V87.5049H59.2395Z" fill="#2E2E2E"/>
<path d="M65.4916 90.0258C65.4916 91.4669 64.3267 92.5829 62.8198 92.5829C61.313 92.5829 60.1474 91.4669 60.1474 90.0258C60.1474 88.5848 61.3124 87.4833 62.8198 87.4833C64.3273 87.4833 65.4916 88.5854 65.4916 90.0258ZM61.0118 90.0258C61.0118 91.0271 61.8401 91.8193 62.8268 91.8193C63.0641 91.8236 63.2998 91.7805 63.5203 91.6927C63.7407 91.6048 63.9415 91.474 64.1108 91.3077C64.2801 91.1414 64.4146 90.943 64.5064 90.7242C64.5982 90.5054 64.6455 90.2704 64.6455 90.0331C64.6455 89.7958 64.5982 89.5609 64.5064 89.342C64.4146 89.1232 64.2801 88.9248 64.1108 88.7586C63.9415 88.5923 63.7407 88.4614 63.5203 88.3735C63.2998 88.2857 63.0641 88.2427 62.8268 88.247C61.8331 88.247 61.0147 89.0275 61.0147 90.0258H61.0118Z" fill="#2E2E2E"/>
<path d="M69.5966 92.5468L68.6746 91.0201C68.6029 91.0271 68.5237 91.0271 68.4416 91.0271H67.247V92.5468H66.3971V87.5049H68.4428C69.7318 87.5049 70.4739 88.1316 70.4739 89.2267C70.4739 90.0334 70.0993 90.6019 69.4295 90.8617L70.5601 92.5468H69.5966ZM68.4445 90.2635C69.2221 90.2635 69.6677 89.932 69.6677 89.2482C69.6677 88.5854 69.221 88.2685 68.4445 88.2685H67.247V90.2635H68.4445Z" fill="#2E2E2E"/>
<path d="M24.6275 30.0993C23.8537 30.0978 23.081 30.1601 22.3174 30.2857V22.7135H17.8644V55.0862C19.4051 56.1393 19.9345 56.8791 21.7816 57.2524C21.9563 57.2885 22.1369 57.3188 22.3174 57.3485C23.081 57.4741 23.8537 57.5364 24.6275 57.5349C32.336 57.5349 38.6069 51.3793 38.6069 43.8159C38.6069 36.2525 32.336 30.0993 24.6275 30.0993ZM24.6275 52.2001C24.0294 52.2006 23.4328 52.1401 22.8469 52.0195C22.6663 51.984 22.4916 51.9414 22.3174 51.8937V35.7434C22.4922 35.7009 22.6722 35.659 22.8469 35.617C23.4332 35.4993 24.0295 35.4388 24.6275 35.4365C29.3933 35.4365 33.2685 39.1969 33.2685 43.8183C33.2685 48.4396 29.3933 52.2001 24.6275 52.2001Z" fill="#2E2E2E"/>
<path d="M57.6435 30.7185V61.7288C56.7768 61.3572 55.9654 61.0077 55.8332 60.9308C54.9746 60.4246 54.2023 60.1357 53.2412 59.9785C52.6453 59.8884 52.0439 59.8388 51.4413 59.8299C49.2076 59.7717 46.8852 60.3198 44.6398 60.8534C42.9337 61.2611 41.2061 61.7119 39.5385 62.1494C35.0232 63.3405 30.3593 64.5637 25.47 64.9889C24.2649 65.0938 22.9194 65.2091 21.5215 65.2091C18.4839 65.2091 15.1981 64.6592 12.5817 62.2385C9.29361 59.198 8.23992 53.3593 9.66232 47.7652L13.9726 50.0211C13.4554 52.0411 12.3906 56.5891 15.6321 59.5882C18.0837 61.8529 21.066 61.7434 25.1578 61.3939C29.739 60.9972 34.0505 59.8637 38.6182 58.6644C40.3074 58.2182 42.0548 57.7587 43.8074 57.3434C46.276 56.7574 48.8319 56.1522 51.5398 56.2262C52.11 56.2394 52.6788 56.2882 53.2429 56.3724L53.2511 30.722C53.2511 27.7227 51.8625 26.2222 49.0852 26.2207C47.0217 26.2207 45.3056 26.848 43.9368 28.1027C42.568 29.3573 41.883 30.9806 41.8818 32.9727C41.8818 36.0493 43.4207 37.5874 46.4985 37.5871C47.2856 37.5871 48.0543 37.5496 48.8045 37.4746V41.1314C47.8726 41.273 46.9319 41.3483 45.9894 41.3568C43.4001 41.3568 41.3467 40.5975 39.8292 39.0788C38.3116 37.5601 37.5521 35.5247 37.5505 32.9727C37.5505 29.9349 38.6108 27.4128 40.7314 25.4064C42.852 23.4 45.6562 22.3954 49.1441 22.3927C54.8057 22.3927 57.6388 25.168 57.6435 30.7185Z" fill="#2E2E2E"/>
<path d="M57.6492 21.5492L52.9469 20.2998C53.0052 18.2169 52.8124 12.1883 48.9861 9.9819C46.0941 8.31428 43.2103 9.07906 39.2978 10.3285C34.9171 11.7264 30.9603 13.7872 26.7747 15.9662C23.366 17.741 19.8549 19.7797 16.0519 20.7757C15.5737 20.8998 14.9679 21.032 14.283 21.1421V48.1869L9.84219 45.928V21.4252C8.47163 21.3512 7.16281 21.0897 6.1796 20.5171L6.74925 17.042C8.30387 17.3257 9.94354 17.7684 11.2092 17.8459C16.1317 18.1429 20.9115 14.9539 25.1076 12.7661C29.2461 10.611 33.5244 8.38301 38.1993 6.88896C39.352 6.52026 40.6399 6.1102 41.9993 5.80207C44.9653 5.13048 48.2901 4.9406 51.3772 6.72121C55.2558 8.95791 57.8007 15.7763 57.6492 21.5492Z" fill="#2E2E2E"/>
<path d="M64.4055 75.6107V77.8888H59.9589C59.9479 77.8422 59.9368 77.7956 59.9234 77.7484C58.6711 73.2278 52.6815 67.7136 47.0018 66.9296C40.2387 65.9976 34.7909 70.8863 32.0748 76.7501L25.9419 77.0634C27.0486 68.7568 35.2999 62.3071 45.3074 62.3071C51.1513 62.3071 56.3901 64.5024 59.9618 67.9862L59.9566 22.6698H64.4003L64.4055 75.6107Z" fill="#2E2E2E"/>
<path d="M70.5846 83.2097H0V0H70.5846V83.2097ZM0.274927 82.9348H70.3097V0.275509H0.274927V82.9348Z" fill="#2E2E2E"/>
</svg>
