<svg width="100" height="100" viewBox="0 0 100 100" fill="none" xmlns="http://www.w3.org/2000/svg">
<rect opacity="0.05" width="100" height="100" rx="16" fill="#4991FF"/>
<g clip-path="url(#clip0_60_315)">
<path d="M54.2105 28.5231C53.4572 29.4372 52.7416 30.3026 52.03 31.1705C50.4429 33.1014 48.8559 35.0311 47.2728 36.9647C46.652 37.7234 46.804 38.2485 47.7494 38.4642C50.2118 39.0253 52.6676 39.6262 55.152 40.0781C56.9663 40.4093 58.8222 40.5223 60.6559 40.7483C61.0897 40.8022 61.4027 40.6751 61.6767 40.3451C64.1312 37.3768 66.5975 34.4174 69.0481 31.4452C69.7364 30.6107 69.7235 30.585 70.7196 31.0793C71.1196 31.2783 71.491 31.5351 71.9248 31.7957C71.7806 31.9947 71.6871 32.1398 71.578 32.2708C67.1663 37.5989 62.7494 42.9206 58.3442 48.2526C56.0858 50.9873 53.8546 53.7451 51.5949 56.4785C51.0559 57.1307 50.7832 57.815 50.8274 58.6778C50.8832 59.7986 50.8351 60.9246 50.8131 62.048C50.8027 62.6219 50.7611 62.6424 50.1884 62.5256C45.1248 61.4908 40.0585 60.465 34.9988 59.4109C33.8429 59.1695 32.7105 58.819 31.5611 58.5391C31.2728 58.4685 31.1871 58.3119 31.1468 58.0487C30.6027 54.5295 31.2481 51.289 33.5676 48.5004C35.4754 46.2087 37.4494 43.9708 39.4274 41.7369C42.7105 38.029 46.0222 34.3468 49.3157 30.6479C50.5494 29.2626 52.1507 28.672 53.9546 28.5026C54.0131 28.4974 54.0728 28.5115 54.2092 28.5231H54.2105ZM56.7338 45.9968C57.0066 45.9699 57.2871 45.9699 57.552 45.9082C57.9494 45.8171 58.3728 45.6977 58.4689 45.2342C58.5611 44.7925 58.2468 44.5075 57.9248 44.2892C56.9313 43.6191 55.8364 43.37 54.6494 43.6268C54.2793 43.7064 53.839 43.8604 53.8507 44.2726C53.8598 44.5858 54.0858 44.9723 54.3364 45.1828C55.0131 45.7503 55.8559 45.9365 56.7325 45.9942L56.7338 45.9968ZM41.7754 51.7859C41.63 51.8051 41.339 51.8257 41.0572 51.8886C40.6858 51.972 40.3196 52.1094 40.2325 52.5318C40.1455 52.9542 40.4274 53.2328 40.7325 53.4485C41.7312 54.1521 42.8442 54.3857 44.0455 54.138C44.4144 54.0622 44.7819 53.9248 44.865 53.4934C44.9468 53.071 44.6767 52.7976 44.3728 52.5716C43.6494 52.0337 42.8131 51.8218 41.7754 51.7872V51.7859ZM36.9975 52.8874C37.1754 52.8592 37.5196 52.8669 37.804 52.7424C38.0754 52.623 38.4403 52.3957 38.4832 52.1646C38.5312 51.9053 38.3416 51.4957 38.1209 51.3147C37.1274 50.4994 35.9585 50.285 34.7053 50.5328C34.33 50.6073 33.8988 50.7767 33.9131 51.1837C33.9235 51.4944 34.1585 51.877 34.4131 52.0863C35.1066 52.6563 35.9624 52.8464 36.9988 52.8874H36.9975ZM40.6832 48.0806C40.8287 48.06 41.1442 48.078 41.3949 47.9599C41.6936 47.8187 42.0507 47.6132 42.1767 47.3423C42.352 46.9623 42.0131 46.649 41.7092 46.4321C40.6988 45.7118 39.5676 45.4537 38.3572 45.7529C38.0572 45.8273 37.7079 46.097 37.5819 46.3679C37.4066 46.7453 37.7429 47.0535 38.0429 47.2833C38.7754 47.8418 39.6274 48.0536 40.6832 48.0819V48.0806ZM46.8312 49.4543C47.1338 49.4132 47.4663 49.4338 47.7325 49.3144C48.0325 49.1796 48.3884 48.969 48.5144 48.6981C48.691 48.3194 48.3559 48.0023 48.0507 47.7853C47.0403 47.0637 45.9092 46.807 44.6988 47.1061C44.3975 47.1806 44.0455 47.4476 43.9196 47.7185C43.7416 48.0973 44.0819 48.4028 44.3819 48.6314C45.1001 49.1796 45.9338 49.3978 46.8312 49.4543ZM48.252 53.1134C47.965 53.1532 47.6494 53.134 47.3988 53.2495C47.1001 53.3869 46.7481 53.5885 46.6144 53.8581C46.4274 54.2355 46.7494 54.5565 47.0546 54.7773C48.0312 55.4822 49.1287 55.7184 50.3144 55.5053C50.7157 55.4334 51.1338 55.2999 51.2183 54.8274C51.3001 54.3652 50.9637 54.0879 50.6299 53.8568C49.9209 53.3638 49.1144 53.1596 48.2507 53.116L48.252 53.1134ZM44.2248 43.2724C44.3689 43.257 44.6325 43.2583 44.8819 43.1992C45.2793 43.1042 45.7027 42.9784 45.7845 42.5098C45.8611 42.0733 45.5481 41.7908 45.2235 41.5738C44.2572 40.928 43.1949 40.6815 42.0403 40.9075C41.6533 40.9832 41.2546 41.1039 41.1533 41.543C41.0416 42.0283 41.3793 42.3172 41.7325 42.5611C42.4455 43.0529 43.2533 43.2506 44.2261 43.2724H44.2248ZM50.5741 44.6269C50.7209 44.6115 50.9845 44.6102 51.2338 44.5512C51.6157 44.46 52.0157 44.3342 52.1183 43.8989C52.2222 43.4573 51.9131 43.1684 51.5923 42.9489C50.6027 42.2723 49.5079 42.0219 48.3209 42.2735C47.952 42.3519 47.5806 42.4867 47.4871 42.9078C47.3897 43.3494 47.6819 43.6332 48.0014 43.8656C48.7313 44.3945 49.5689 44.6038 50.5741 44.6269ZM53.3455 50.7844C53.4897 50.7665 53.7923 50.7947 54.0261 50.683C54.339 50.5341 54.7196 50.3312 54.8507 50.0501C55.0364 49.6533 54.678 49.3285 54.3559 49.1064C53.352 48.4118 52.2338 48.1589 51.0416 48.4555C50.7403 48.5299 50.3884 48.797 50.2598 49.0679C50.0806 49.4479 50.4235 49.7522 50.7222 49.9807C51.4533 50.5405 52.304 50.7575 53.3468 50.7844H53.3455Z" fill="#4991FF"/>
<path d="M72.8715 33.104C73.5273 34.2313 73.8857 35.4189 73.9728 36.6783C74.1637 39.4207 73.3286 41.8511 71.5195 43.9182C68.4624 47.4129 65.3325 50.8448 62.2883 54.3511C59.4779 57.589 56.739 60.8861 53.9779 64.1651C53.1753 65.1178 52.3624 66.0563 51.2909 66.7252C50.1507 67.4378 48.9247 67.7626 47.5805 67.4159C47.352 67.3569 47.1377 67.2426 46.8533 67.127C47.7182 66.0691 48.5377 65.0613 49.3715 64.0624C49.4351 63.9854 49.5961 63.9571 49.7117 63.9597C49.8715 63.9635 50.0286 64.0188 50.1883 64.0483C51.3883 64.2717 52.1312 63.8018 52.252 62.5872C52.365 61.4574 52.387 60.3096 52.3286 59.1759C52.2844 58.2965 52.552 57.625 53.1091 56.9574C57.3741 51.8462 61.6156 46.7171 65.8585 41.5892C68.1182 38.8571 70.3663 36.116 72.6208 33.3788C72.6909 33.2927 72.7702 33.2144 72.8715 33.104ZM65.9974 47.3115C66.0429 47.3513 66.0883 47.3924 66.1338 47.4322C66.6416 46.97 67.1702 46.5283 67.6559 46.043C69.2195 44.4818 70.5987 42.7871 71.2935 40.6571C71.4961 40.037 71.5728 39.3758 71.7078 38.7339C71.6351 38.7069 71.5624 38.6799 71.4909 38.6517C70.6779 42.176 68.2065 44.6603 65.9987 47.3102L65.9974 47.3115Z" fill="#4991FF"/>
<path d="M47.7923 63.5886C46.256 65.4887 44.7092 67.3041 43.2728 69.203C41.8209 71.1211 39.8663 71.7503 37.6118 71.4152C34.4404 70.9427 31.3001 70.2686 28.2858 69.1465C27.6534 68.9116 27.0521 68.5778 26.4676 68.2388C25.9598 67.9435 25.8702 67.593 26.1793 67.1026C26.4598 66.6571 26.7962 66.2372 27.156 65.8508C28.804 64.0803 30.4728 62.3291 32.1248 60.5612C32.2988 60.375 32.4404 60.3159 32.7027 60.3711C37.6105 61.4214 42.5222 62.4575 47.4326 63.4974C47.5274 63.518 47.6209 63.5462 47.7923 63.5899V63.5886ZM43.23 66.2603C43.1988 66.2295 43.1676 66.2 43.1365 66.1692C42.7196 66.6545 42.3183 67.1539 41.8806 67.6213C40.9949 68.5662 39.9001 69.0541 38.5845 68.9539C38.0391 68.9116 37.4949 68.814 36.9585 68.7036C36.3611 68.5803 35.7728 68.4147 35.1806 68.2671C35.1715 68.3094 35.1611 68.3531 35.1521 68.3954C36.7157 69.2146 38.3313 69.8694 40.1611 69.3391C41.7495 68.8782 42.6196 67.6803 43.23 66.2616V66.2603Z" fill="#4991FF"/>
<path d="M48.9753 37.2382C50.3779 35.5422 51.7325 33.9065 53.0844 32.267C54.0065 31.1487 54.9442 30.0407 55.8325 28.8968C56.1026 28.5501 56.3779 28.4564 56.7779 28.5155C59.7104 28.9456 62.6442 29.3629 65.5753 29.8019C66.3883 29.9239 67.1922 30.1011 68.0312 30.2603C67.9896 30.3489 67.9753 30.4118 67.9377 30.458C65.6689 33.2209 63.3935 35.9787 61.1325 38.7481C60.8208 39.1307 60.5104 39.2668 59.987 39.2128C56.4039 38.8431 52.8468 38.3488 49.3753 37.364C49.2688 37.3332 49.1624 37.2973 48.9753 37.2395V37.2382ZM55.2455 33.8616C56.8364 32.1065 58.7182 30.7443 60.8883 29.7686C58.6611 29.7506 55.5831 32.2529 55.2455 33.8616Z" fill="#4991FF"/>
</g>
<defs>
<clipPath id="clip0_60_315">
<rect width="48" height="43" fill="white" transform="translate(26 28.5)"/>
</clipPath>
</defs>
</svg>
